<svg width="53" height="47" viewBox="0 0 53 47" fill="none" xmlns="http://www.w3.org/2000/svg">
<path fill-rule="evenodd" clip-rule="evenodd" d="M7.32684 7.71056C9.14837 5.79345 11.5711 4.73709 14.1486 4.73709C16.7262 4.73709 19.1459 5.79345 20.9704 7.71056C22.7801 9.61563 23.7831 12.1467 23.795 14.8403V14.8884H28.2982V14.8403C28.3101 12.1467 29.3102 9.61563 31.1228 7.71056C32.9443 5.79345 35.3671 4.73709 37.9446 4.73709C40.5221 4.73709 42.9419 5.79345 44.7664 7.71056C46.5879 9.62767 47.591 12.1768 47.591 14.8884H52.0912C52.0912 12.878 51.7162 10.9278 50.9781 9.09196C50.2667 7.31931 49.2458 5.72724 47.9481 4.36089C46.6504 2.99454 45.1355 1.92012 43.4509 1.17073C41.7067 0.394256 39.8524 0 37.9446 0C36.0368 0 34.1825 0.394256 32.4383 1.17073C30.7537 1.92012 29.2417 2.99454 27.9411 4.36089C27.2238 5.1163 26.5928 5.94393 26.0481 6.83176C25.5064 5.94393 24.8754 5.1163 24.1551 4.36089C22.8575 2.99454 21.3425 1.92012 19.6579 1.17073C17.9137 0.394256 16.0595 0 14.1516 0C12.2438 0 10.3895 0.394256 8.64536 1.17073C6.96075 1.92012 5.44876 2.99454 4.14809 4.36089C2.8504 5.72724 1.82951 7.31931 1.11816 9.09196C0.380026 10.9278 0.00500488 12.881 0.00500488 14.8884H4.50525C4.50525 12.1768 5.50828 9.62767 7.32981 7.71056H7.32684ZM47.9392 20.2183C46.6415 18.852 45.1266 17.7775 43.4419 17.0282C41.6978 16.2517 39.8435 15.8574 37.9357 15.8574C36.0278 15.8574 34.1736 16.2517 32.4294 17.0282C30.7448 17.7775 29.2328 18.852 27.9322 20.2183C27.2149 20.9737 26.5839 21.8014 26.0392 22.6892C25.4975 21.8014 24.8665 20.9737 24.1462 20.2183C22.8485 18.852 21.3336 17.7775 19.649 17.0282C17.9048 16.2517 16.0506 15.8574 14.1427 15.8574C12.2349 15.8574 10.3806 16.2517 8.63645 17.0282C6.95183 17.7775 5.43985 18.852 4.13918 20.2183C2.84149 21.5847 1.8206 23.1767 1.10925 24.9494C0.371114 26.7852 -0.00390625 28.7385 -0.00390625 30.7458H4.49634C4.49634 28.0342 5.49937 25.4851 7.3209 23.568C9.14243 21.6509 11.5652 20.5945 14.1427 20.5945C16.7202 20.5945 19.14 21.6509 20.9645 23.568C22.7741 25.4731 23.7772 28.0041 23.7891 30.6977V30.7458H28.2923V30.6977C28.3042 28.0041 29.3043 25.4731 31.1169 23.568C32.9384 21.6509 35.3611 20.5945 37.9387 20.5945C40.5162 20.5945 42.936 21.6509 44.7605 23.568C46.585 25.4851 47.585 28.0342 47.585 30.7458H52.0853C52.0853 28.7354 51.7103 26.7852 50.9721 24.9494C50.2608 23.1767 49.2399 21.5847 47.9422 20.2183H47.9392ZM43.4419 32.8826C45.1266 33.632 46.6415 34.7065 47.9392 36.0728H47.9422C49.2399 37.4392 50.2608 39.0312 50.9721 40.8039C51.7103 42.6397 52.0853 44.5899 52.0853 46.6003H47.585C47.585 43.8887 46.582 41.3396 44.7605 39.4225C42.936 37.5054 40.5162 36.449 37.9387 36.449C35.3611 36.449 32.9384 37.5054 31.1169 39.4225C29.3043 41.3275 28.3042 43.8586 28.2923 46.5522V46.6003H23.7891V46.5522C23.7772 43.8586 22.7741 41.3275 20.9645 39.4225C19.14 37.5054 16.7202 36.449 14.1427 36.449C11.5652 36.449 9.14243 37.5054 7.3209 39.4225C5.49937 41.3396 4.49634 43.8887 4.49634 46.6003H-0.00390625C-0.00390625 44.5929 0.371114 42.6397 1.10925 40.8039C1.8206 39.0312 2.84149 37.4392 4.13918 36.0728C5.43985 34.7065 6.95183 33.632 8.63645 32.8826C10.3806 32.1062 12.2349 31.7119 14.1427 31.7119C16.0506 31.7119 17.9048 32.1062 19.649 32.8826C21.3336 33.632 22.8485 34.7065 24.1462 36.0728C24.8665 36.8282 25.4975 37.6558 26.0392 38.5437C26.5839 37.6558 27.2149 36.8282 27.9322 36.0728C29.2328 34.7065 30.7448 33.632 32.4294 32.8826C34.1736 32.1062 36.0278 31.7119 37.9357 31.7119C39.8435 31.7119 41.6978 32.1062 43.4419 32.8826Z" fill="#00999E"/>
</svg>
