<svg width="1440" height="52" viewBox="0 0 1440 52" fill="none" xmlns="http://www.w3.org/2000/svg">
<path d="M1469 39C1450.4 37.5538 1431.13 37.6235 1412.15 37.4118C1383.58 37.093 1355.03 36.8824 1326.45 36.8824C1261.55 36.8824 1196.65 36.8824 1131.76 36.8824C1042.08 36.8824 952.668 37.3998 863.06 38.4706C812.059 39.08 761.062 38.4587 710.091 37.9608C661.911 37.4902 613.901 37.5882 565.733 37.5882C533.961 37.5882 501.307 38.2653 469.786 36.6863C438.785 35.1333 408.358 32.1428 377.388 30.7255C350.461 29.4932 323.938 27.4949 296.918 26.451C282.597 25.8977 268.499 25.9412 254.093 25.9412C198.193 25.9412 143.514 24.3559 88.2656 21.3529C43.1858 18.9027 -0.368468 14.0342 -45.5604 11.8235C-58.793 11.1762 -72.6916 11.0473 -85.7081 10.0588C-90.5359 9.6922 -97.9814 9.90283 -102 9" stroke="#D2F038" stroke-width="3" stroke-linecap="round"/>
<path d="M-32 50C-22.6909 49.876 -13.5693 48.946 -4.30749 48.5333C14.3216 47.7031 33.1102 47.8913 51.7757 47.4666C71.3049 47.0222 90.7216 45.5264 110.244 44.9332C129.948 44.3345 149.615 44.014 169.294 43.0998C202.627 41.5512 235.502 38.0489 268.778 36.3329C313.757 34.0134 358.445 29.9773 403.517 28.1326C444.685 26.4477 485.917 22.9991 527.202 22.9991C554.91 22.9991 582.269 24.0096 609.815 25.6659C633.83 27.1099 658.849 27.2515 683.002 26.5326C708.594 25.7708 734.152 23.1288 759.68 21.7991C790.489 20.1943 821.052 17.6776 852.066 17.599C887.456 17.5092 922.85 17.599 958.24 17.599C1033.6 17.599 1109.21 13.7078 1184.43 11.3321C1217.95 10.2735 1251.34 9.43422 1284.85 7.99865C1312.82 6.80031 1340.8 4.96293 1368.68 3.19849C1392.73 1.67714 1416.68 1.73941 1440.82 2.63181C1453.71 3.10827 1466.77 4.01317 1479.57 4.99855C1485.96 5.49047 1492.96 5.64408 1499 6.79861" stroke="#D2F038" stroke-width="3" stroke-linecap="round"/>
</svg>
