<svg width="105" height="28" viewBox="0 0 105 28" fill="none" xmlns="http://www.w3.org/2000/svg">
<path d="M10.9243 2.58072H13.1826C14.5579 2.37811 15.9623 2.55624 17.2435 3.09576C18.8508 4.06276 20.0166 5.61953 20.4922 7.43398C20.829 8.38482 20.829 8.38482 21.6411 8.04807H22.275V0.520554H1.01972V1.84777H1.89133C2.27009 1.84515 2.64463 1.92742 2.98743 2.08853C3.33022 2.24965 3.63257 2.48552 3.87225 2.77881C4.68443 4.08622 4.8231 5.5521 4.8231 13.1787C4.8231 21.2806 4.64481 23.2616 3.87225 24.2718C3.68153 24.5316 3.4346 24.7448 3.1499 24.8958C2.8652 25.0467 2.55009 25.1314 2.22809 25.1434C1.01972 25.3613 1.01972 25.3415 1.01972 25.8764C0.952899 26.0552 0.952899 26.2522 1.01972 26.431H14.4306C14.5193 26.2561 14.5656 26.0627 14.5656 25.8665C14.5656 25.6703 14.5193 25.4769 14.4306 25.3019C14.1058 25.2115 13.7747 25.1453 13.4401 25.1038C13.0782 25.0608 12.7204 24.9879 12.3704 24.8859C11.8693 24.5201 11.4723 24.0298 11.2187 23.4635C10.9651 22.8972 10.8636 22.2745 10.9243 21.657C10.7263 20.3496 10.6272 17.9527 10.6272 15.9718V14.4068H11.4196C12.4068 14.3766 13.3934 14.4833 14.3513 14.7238C14.8103 15.0074 15.2009 15.3888 15.4954 15.8408C15.7899 16.2928 15.9809 16.8042 16.0549 17.3386L16.2332 17.9527H17.4416V9.17719H16.3323L16.154 10.029C16.079 10.5755 15.8768 11.0967 15.5637 11.5508C15.2507 12.005 14.8354 12.3793 14.3513 12.6438C13.8826 12.7833 13.3887 12.8171 12.9053 12.7429H10.6272V10.6035C10.6272 8.38482 10.7461 3.70984 10.8253 2.9769L10.9243 2.58072ZM103.632 18.2894C102.695 16.7824 101.235 15.6747 99.5311 15.1794C98.225 14.7711 97.0176 14.0966 95.9852 13.1985C95.7529 12.9738 95.5791 12.6956 95.479 12.3883C95.3789 12.081 95.3554 11.7539 95.4108 11.4354C95.4123 10.8108 95.6617 10.2124 96.1041 9.77147C96.4039 9.45741 96.7835 9.23071 97.2022 9.11557C97.6208 9.00044 98.0629 9.00119 98.4812 9.11777C99.3472 9.36457 100.13 9.84102 100.748 10.4966C101.365 11.1523 101.793 11.9626 101.987 12.8419C102.304 13.7333 102.344 13.7333 102.918 13.4956L103.275 13.3569V8.42444L103.018 8.30559C101.067 7.62064 98.9986 7.33763 96.9361 7.4736C95.1599 7.5186 93.4645 8.22502 92.1819 9.45452C91.6002 9.99906 91.1445 10.6642 90.8468 11.4033C90.5491 12.1424 90.4166 12.9376 90.4585 13.7333C90.4696 14.9499 90.9525 16.1146 91.8055 16.982C92.7481 17.9091 93.9048 18.5895 95.173 18.963C98.2435 20.1713 99.1349 20.9439 99.1349 22.3503C99.1481 22.9435 98.9592 23.5234 98.5992 23.995C98.2392 24.4665 97.7296 24.8017 97.154 24.9454C96.4623 25.0973 95.7459 25.0973 95.0542 24.9454C94.1486 24.5939 93.34 24.0312 92.6957 23.3042C92.0514 22.5772 91.59 21.7069 91.3499 20.7656L91.0924 20.1317H90.7358C90.5654 20.1444 90.3981 20.1845 90.2406 20.2506H90.0425V25.8764H90.3792C91.7175 26.3216 93.0983 26.627 94.4995 26.7876H96.4805C97.3395 26.8507 98.2031 26.7703 99.0359 26.5499C100.093 26.3548 101.081 25.8865 101.901 25.1915C102.721 24.4964 103.345 23.5989 103.711 22.5881C103.947 22.0234 104.068 21.4173 104.067 20.8052C104.145 19.9429 103.995 19.0753 103.632 18.2894ZM84.9713 8.04807C83.7843 7.54969 82.5052 7.30793 81.2182 7.33865C79.9311 7.36938 78.6651 7.67189 77.5032 8.22635C76.4111 8.76057 75.4431 9.51787 74.6617 10.4494C73.8803 11.3809 73.303 12.4658 72.9669 13.6343C72.5384 14.9089 72.3569 16.2535 72.432 17.5961C72.4179 18.3266 72.4776 19.0567 72.6103 19.7751C72.9302 21.5417 73.7831 23.1681 75.0543 24.4358C76.3256 25.7036 77.9544 26.5519 79.7218 26.8668C80.8728 27.0119 82.0375 27.0119 83.1885 26.8668C84.3828 26.6563 85.5259 26.2193 86.556 25.5792C87.4081 25.1016 88.1293 24.4212 88.6558 23.5983C88.622 23.4692 88.5625 23.3483 88.4808 23.2427C88.3991 23.1372 88.2969 23.0493 88.1804 22.9842C87.9543 23.0661 87.7409 23.1795 87.5465 23.321C86.5612 23.9703 85.3978 24.2958 84.2185 24.252C83.4359 24.3049 82.6512 24.1831 81.9214 23.8953C81.1917 23.6075 80.5351 23.161 79.9992 22.5881C79.5846 22.203 79.2425 21.7468 78.9889 21.241C78.3733 20.0095 78.0417 18.6557 78.0182 17.2792V16.5066H88.9926V16.1104C89.0168 15.7146 89.0168 15.3177 88.9926 14.9219C88.9886 13.5231 88.6145 12.1504 87.9082 10.9431C87.2019 9.73577 86.1886 8.73694 84.9713 8.04807ZM79.4445 14.9021H78.0579V13.7333C78.5135 10.7421 79.6426 8.95929 81.0293 8.95929C82.4159 8.95929 83.0102 10.7223 83.2677 13.9512V14.8624H82.0791L79.4445 14.9021ZM50.9588 7.39436C50.2743 7.36782 49.5939 7.51071 48.9779 7.81036C47.6391 8.46055 46.5577 9.54195 45.9075 10.8808L45.65 11.3562V7.39436H45.5509C45.3132 7.39436 37.9838 8.86025 37.7461 8.95929C37.5084 9.05834 37.5876 9.07815 37.5876 9.43471C37.5876 9.79128 37.5876 9.85071 37.7461 9.87052L38.5186 10.029C38.735 10.0343 38.9473 10.0888 39.1395 10.1883C39.3317 10.2878 39.4987 10.4298 39.6279 10.6035C40.1232 11.2572 40.2222 12.4061 40.2222 17.299C40.3201 19.5017 40.2273 21.7087 39.9449 23.8955C39.8784 24.2252 39.7112 24.5261 39.4664 24.7568C39.2215 24.9874 38.9112 25.1364 38.578 25.1831L37.9045 25.3217H37.647V25.8764C37.5752 26.0611 37.5752 26.2661 37.647 26.4509H48.7204V25.8764C48.7588 25.6868 48.7588 25.4915 48.7204 25.3019C48.0537 25.2759 47.3907 25.1897 46.7395 25.0444C46.3848 24.8589 46.0947 24.5704 45.9073 24.2168C45.7199 23.8631 45.644 23.4611 45.6896 23.0635C45.5311 21.9145 45.4519 18.547 45.4915 15.9718C45.5311 13.3966 45.4915 13.2381 45.7094 13.0598C46.3722 12.5516 47.1925 12.2922 48.0271 12.3269C48.8137 12.344 49.5861 12.5405 50.2853 12.9013C50.5277 13.0359 50.7878 13.136 51.0579 13.1985C51.0579 13.1985 53.0388 8.40463 53.0388 8.18673C52.7853 7.89216 52.4623 7.66544 52.0992 7.52709C51.736 7.38874 51.3441 7.34312 50.9588 7.39436ZM37.6074 15.7142C37.5383 14.2987 37.1319 12.9201 36.422 11.6935C35.7122 10.4668 34.7195 9.42748 33.5267 8.66215C32.1091 7.89741 30.532 7.47575 28.9219 7.43103C27.3119 7.3863 25.7138 7.71976 24.256 8.40463C22.1948 9.49153 20.6385 11.3391 19.9177 13.555C19.1732 16.036 19.1732 18.6809 19.9177 21.1618C20.308 22.5177 21.0375 23.7517 22.0373 24.7473C23.2825 25.9623 24.8881 26.7407 26.6133 26.9659C27.7206 27.0585 28.8338 27.0585 29.9412 26.9659C30.3487 26.9039 30.7522 26.8179 31.1496 26.7084C32.762 26.2573 34.2126 25.3564 35.3317 24.111C36.4507 22.8657 37.192 21.3274 37.4687 19.6761C37.6665 18.3651 37.713 17.0358 37.6074 15.7142ZM29.3668 25.6189C27.3858 26.2131 25.9001 24.2916 25.4049 20.2506C25.223 18.1349 25.223 16.0075 25.4049 13.8918C25.8011 10.6431 26.8114 8.99891 28.3763 8.99891C28.692 8.97934 29.0078 9.03567 29.2973 9.16319C29.5868 9.29071 29.8416 9.4857 30.0403 9.73185C31.3675 11.0591 32.0212 13.6937 32.0212 17.6556C32.186 19.8977 31.8336 22.1478 30.9911 24.2322C30.6191 24.8401 30.0435 25.2964 29.3668 25.5198V25.6189ZM65.0234 7.79055C64.4644 7.71862 63.8986 7.71862 63.3396 7.79055C62.2666 7.78963 61.206 8.01932 60.2296 8.46406L59.6155 8.72158V4.42298C59.7228 2.97228 59.7228 1.51564 59.6155 0.0649414C59.3778 0.0649414 51.8106 1.51102 51.6918 1.57044C51.6333 1.7167 51.6333 1.8798 51.6918 2.02606C51.6918 2.44205 51.6918 2.42224 52.5832 2.62033C52.8335 2.67646 53.0739 2.76995 53.2963 2.89766C53.683 3.26128 53.9403 3.74122 54.0293 4.2645C54.2548 5.77203 54.3278 7.29845 54.2472 8.82063V26.2131L54.782 26.332C55.5744 26.5103 57.8128 26.8867 58.5458 26.9659C60.0093 27.0823 61.4798 27.0823 62.9434 26.9659C64.5679 26.8 66.1163 26.1939 67.4219 25.213C68.7274 24.2321 69.7405 22.9136 70.3521 21.3995C70.7167 20.4277 70.9692 19.4175 71.1048 18.3885C71.2227 16.9946 71.1762 15.5917 70.9662 14.2087C70.7536 12.6585 70.0694 11.2112 69.0063 10.063C67.9432 8.91487 66.5527 8.12151 65.0234 7.79055ZM59.8334 25.2821C59.8334 25.0246 59.6353 16.3481 59.6749 12.8815V10.1677L60.2494 10.029C60.637 9.97346 61.0305 9.97346 61.4181 10.029C61.8468 9.98541 62.2779 10.0828 62.6463 10.3063C63.3861 10.8169 64.0004 11.4886 64.443 12.2709C64.8856 13.0532 65.145 13.9258 65.2017 14.8228C65.346 16.2653 65.346 17.7186 65.2017 19.1611C65.0831 21.2576 64.2753 23.2562 62.9038 24.8463C62.5145 25.216 62.0257 25.4639 61.4973 25.5594C61.0976 25.629 60.6888 25.629 60.289 25.5594C59.9126 25.5594 59.9126 25.4406 59.9126 25.2821H59.8334Z" fill="black"/>
</svg>
