<svg width="82" height="29" viewBox="0 0 82 29" fill="none" xmlns="http://www.w3.org/2000/svg">
<path d="M0 6.51231H3.57368V21.5807H0V27.5492H19.1211V21.5807H15.5105V6.51231H19.1211V0.0649414H0V6.51231Z" fill="black"/>
<path d="M48.5579 21.5807V13.6596C48.5579 8.61223 44.8737 6.77013 40.3053 6.77013C37.0632 6.77013 34.5947 7.65434 32.4579 10.1228C32.3105 10.307 32.1263 10.528 31.9053 10.7122V6.54907H20.1158V12.5543H22.8053V21.5807H20.1158V27.5859H35.0737V21.5807H32.2368V16.3859C32.2368 14.1754 33.8947 12.5543 36.1053 12.5543C37.8368 12.5543 39.2 13.4017 39.2 15.2807V21.5438H36.4368V27.5491H51.0632V21.6543C51.0632 21.6175 51.0263 21.5807 51.0263 21.5438H48.5579V21.5807Z" fill="black"/>
<path d="M74.8631 19.8123H67.0895H66.8316C66.8316 22.0228 65.2105 23.0544 63.4053 23.0544C59.9421 23.0544 59.6474 20.1439 59.6474 17.3807V17.307C59.6474 14.5439 59.9053 11.6333 63.4053 11.6333C66.1316 11.6333 66.6105 13.9912 66.6842 16.2386L74.7526 15.3544C73.9053 7.13859 65.8 6.6228 63.7737 6.6228C63.4789 6.6228 63.3316 6.6228 63.3316 6.6228C56.6631 6.6228 50.1053 9.90175 50.1053 17.3439C50.1053 18.9281 50.4 20.3281 50.9526 21.5439H50.9895V21.6544C52.9789 26.0754 58.1368 28.0649 63.3316 28.0649C67.5684 28.0649 73.5 27.0333 74.8263 20.5123L74.8631 19.8123Z" fill="black"/>
<path d="M77.6263 27.6598C79.4983 27.6598 81.0158 26.1423 81.0158 24.2703C81.0158 22.3984 79.4983 20.8809 77.6263 20.8809C75.7544 20.8809 74.2368 22.3984 74.2368 24.2703C74.2368 26.1423 75.7544 27.6598 77.6263 27.6598Z" fill="black"/>
</svg>
