<svg width="184" height="37" viewBox="0 0 184 37" fill="none" xmlns="http://www.w3.org/2000/svg">
<path d="M0.268908 24.5019L2.58824 24.1322V2.7204L0 2.38427L0.134454 0.0649414H16.3361L15.9328 6.55234L12.7059 6.4515L12.5042 2.38427H7.4958V12.0313H9.68067L10.1849 9.81284L12.437 9.88007V16.5355H10.1849L9.64706 14.2498H7.46218V24.4683H12.5042L12.9748 20.0313L16.3697 20.1322L16.6387 26.8885H0.168067L0.268908 24.5019Z" fill="black"/>
<path d="M18.1512 26.922L18.2521 24.9388L20.0672 24.5691V11.0565L17.9496 10.8548V8.83799L23.2605 8.06488L23.6638 9.20774V9.98085C24.9412 8.63631 26.4874 7.82959 28.4706 7.82959C31.3613 7.82959 33.5126 9.57749 33.5126 13.0397V24.5355L35.4285 24.9052L35.3277 26.8884H29.0084V14.0481C29.0084 12.1993 28.3361 11.1573 26.6554 11.1573C26.084 11.1573 25.6806 11.2582 25.2437 11.4262C24.9748 11.6615 24.7059 11.9977 24.4706 12.3002V24.6027L26.3865 24.9724L26.2521 26.9556H18.1512V26.922Z" fill="black"/>
<path d="M119.697 26.922L119.765 24.9388L121.58 24.5691V11.0565L119.462 10.8548V8.83799L124.773 8.06488L125.176 9.20774V9.98085C126.454 8.63631 128 7.82959 129.983 7.82959C132.874 7.82959 135.025 9.57749 135.025 13.0397V24.5355L136.941 24.9052L136.84 26.8884H130.555V14.0481C130.555 12.1993 129.882 11.1573 128.202 11.1573C127.63 11.1573 127.227 11.2582 126.79 11.4262C126.521 11.6615 126.252 11.9977 126.017 12.3002V24.6027L127.933 24.9724L127.798 26.9556H119.697V26.922Z" fill="black"/>
<path d="M45.4454 26.5525C44.7059 26.855 43.3949 27.1911 41.6807 27.1911C39.4286 27.1911 37.3445 26.1827 37.3445 22.8886V11.0567L35.1933 10.7205L35.2941 8.36758L37.7143 8.26674L38.7563 4.6701L41.8487 4.53564V8.40119H45.1765L44.9412 10.7541L41.8823 11.0903V22.9222C41.8823 23.897 42.4202 24.5356 43.4286 24.5356H45.2437L45.4454 26.5525Z" fill="black"/>
<path d="M171.26 26.922L171.328 24.9724L173.042 24.5691V11.0565L171.025 10.8548V8.83797L176.538 8.06486L176.908 9.37579V9.81276C178.353 8.73713 180.302 8.03125 182.655 8.03125L183.462 8.73713L182.891 13.8464L179.866 13.7455L179.563 11.0228C178.857 11.1237 178.185 11.3254 177.613 11.7287V24.6027L179.529 25.006L179.395 26.9556H171.26V26.922Z" fill="black"/>
<path d="M92.1008 26.922L92.2017 24.9724L93.9159 24.5691V11.0565L91.8991 10.8548V8.83797L97.4117 8.06486L97.7815 9.37579V9.81276C99.2269 8.73713 101.176 8.03125 103.529 8.03125L104.336 8.73713L103.697 13.8464L100.672 13.7455L100.37 11.0228C99.6638 11.1237 98.9916 11.3254 98.4201 11.7287V24.6027L100.336 25.006L100.202 26.9556H92.1008V26.922Z" fill="black"/>
<path d="M46.7899 26.922L46.8907 24.9724L48.605 24.5691V11.0565L46.5882 10.8548V8.83797L52.1008 8.06486L52.4706 9.37579V9.81276C53.916 8.73713 55.8655 8.03125 58.1849 8.03125L58.9916 8.73713L58.4202 13.8464L55.3949 13.7455L55.0924 11.0228C54.3865 11.1237 53.7143 11.3254 53.1428 11.7287V24.6027L55.0588 25.006L54.9244 26.9556H46.7899V26.922Z" fill="black"/>
<path d="M64.2017 18.6867C64.2017 21.9135 65.6134 24.4009 68.4033 24.4009C69.8487 24.4009 70.9916 24.0984 72.3361 23.4598L73.1092 25.2413C71.7311 26.3505 69.7143 27.1909 67.1933 27.1909C62.2857 27.1909 59.4622 22.9556 59.4622 17.5102C59.4622 12.8715 61.5126 7.7959 67.126 7.7959C72.0336 7.7959 73.8823 12.3337 73.8823 17.3757L73.4117 18.5858L64.2017 18.6867ZM64.1344 16.5354L69.7815 16.2665C69.6806 14.0144 69.2101 10.4514 66.9916 10.4514C66.4538 10.4514 66.084 10.5522 65.4117 10.8883C64.5042 12.4346 64.1344 15.2245 64.1344 16.5354Z" fill="black"/>
<path d="M142.319 18.6867C142.319 21.9135 143.731 24.4009 146.521 24.4009C147.966 24.4009 149.109 24.0984 150.454 23.4598L151.227 25.2413C149.849 26.3505 147.832 27.1909 145.311 27.1909C140.403 27.1909 137.58 22.9556 137.58 17.5102C137.58 12.8715 139.63 7.7959 145.244 7.7959C150.151 7.7959 152 12.3337 152 17.3757L151.529 18.5858L142.319 18.6867ZM142.252 16.5354L147.899 16.2665C147.798 14.0144 147.328 10.4514 145.109 10.4514C144.571 10.4514 144.202 10.5522 143.529 10.8883C142.622 12.4346 142.252 15.2245 142.252 16.5354Z" fill="black"/>
<path d="M109.513 18.6867C109.513 21.9135 110.924 24.4009 113.714 24.4009C115.16 24.4009 116.303 24.0984 117.647 23.4598L118.42 25.2413C117.042 26.3505 115.025 27.1909 112.504 27.1909C107.597 27.1909 104.773 22.9556 104.773 17.5102C104.773 12.8715 106.824 7.7959 112.437 7.7959C117.345 7.7959 119.193 12.3337 119.193 17.3757L118.723 18.5858L109.513 18.6867ZM109.445 16.5354L115.092 16.2665C114.992 14.0144 114.521 10.4514 112.303 10.4514C111.765 10.4514 111.395 10.5522 110.723 10.8883C109.815 12.4346 109.412 15.2245 109.445 16.5354Z" fill="black"/>
<path d="M164.706 26.9222L164.235 25.3087C162.992 26.4852 161.781 27.1911 159.899 27.1911C157.008 27.1911 154.42 25.7457 154.42 21.7457V10.586L152.303 10.3844V8.60286L158.42 7.89697L158.891 9.51042V21.2079C158.891 23.2583 159.731 24.3339 161.378 24.3339C161.849 24.3339 162.454 24.2667 162.992 24.065C163.294 23.7625 163.597 23.3928 163.832 23.023V10.586L161.647 10.3844V8.60286L167.832 7.89697L168.303 9.51042V24.5692L170.218 24.939L169.983 26.9222H164.706Z" fill="black"/>
<path d="M83.0589 24.5019C82.0841 24.5019 81.311 24.3338 80.7059 23.9977V12.1321C80.9748 11.7288 81.2773 11.359 81.5799 11.0229C82.1513 10.8212 82.6555 10.754 83.2605 10.754C85.7815 10.754 86.2185 13.3086 86.2185 17.88C86.2185 22.4514 85.5462 23.4935 85.3782 23.9977C84.6723 24.3338 83.9328 24.5019 83.0589 24.5019ZM90.5883 17.0733C90.5883 11.3926 88.9076 7.82959 84.7059 7.82959C81.916 7.82959 80.6051 9.44304 80.0673 10.1153V9.47665L79.5967 7.8632L74.1177 8.63631V10.5859L76.2353 10.8548V33.7792L74.4202 34.1489L74.3194 36.0649H82.4202L82.5547 34.1489L80.6387 33.7792V26.5187C81.4118 26.9556 82.4874 27.2246 83.6639 27.2246C90.521 27.2246 90.5883 20.2666 90.5883 17.0733Z" fill="black"/>
</svg>
