<svg width="1440" height="47" viewBox="0 0 1440 47" fill="none" xmlns="http://www.w3.org/2000/svg">
<path d="M-73 6.50416C-64.6394 6.50416 -56.6205 6.55649 -48.3533 7.6014C-13.8622 11.9608 20.9007 12.4538 55.9212 12.6714C138.896 13.1869 221.813 13.9957 304.801 13.9957C354.279 13.9957 403.47 11.2816 452.911 10.5526C504.407 9.79334 555.9 8.51433 607.398 7.94192C643.932 7.53585 680.482 8.16729 717.016 7.82841C746.415 7.55572 775.721 6.22191 805.089 5.52042C878.897 3.75745 952.381 1.15734 1026.28 2.26654C1058.59 2.75157 1090.95 1.86711 1123.26 2.56922C1153.64 3.22968 1184.26 5.04105 1214.49 7.1852C1274.64 11.4516 1334.35 14.1226 1394.89 13.9957C1440.94 13.8991 1486.98 13.9957 1533 13.9957" stroke="#00AFB5" stroke-width="3" stroke-linecap="round"/>
<path d="M-9 26.3481C-8.53744 30.9901 2.33233 30.2482 4.31533 30.3847C33.1987 32.373 62.3846 32.5137 91.3088 32.6118C150.199 32.8114 208.949 26.3983 267.848 28.2272C307.205 29.4493 346.724 29.5495 386.077 28.088C451.057 25.6748 515.81 18.6477 580.758 15.6302C661.15 11.8951 741.043 15.0849 821.322 20.0844C889.623 24.338 957.346 35.6831 1025.77 37.6227C1090 39.4436 1154.12 39.1952 1218.34 38.8755C1263.65 38.65 1308.61 45 1353.88 45C1377.75 45 1401.94 38.926 1425.73 36.4396C1440.44 34.9015 1455.23 32.6118 1470 32.6118" stroke="#00AFB5" stroke-width="3" stroke-linecap="round"/>
</svg>
