<svg width="166" height="40" viewBox="0 0 166 40" fill="none" xmlns="http://www.w3.org/2000/svg">
<path d="M54.2195 27.97C51.8864 27.97 49.9806 29.8809 49.9806 32.2182C49.9806 34.5555 51.8012 36.5527 54.1624 36.5809C56.6097 36.5809 58.4874 34.67 58.4874 32.2464C58.4874 29.88 56.5245 27.97 54.2195 27.97ZM54.2195 35.8964C52.2556 35.8964 50.6909 34.2991 50.6909 32.2755C50.6909 30.2227 52.2847 28.6546 54.2476 28.6546C56.2387 28.6546 57.7754 30.28 57.8035 32.2473C57.8044 34.2991 56.2687 35.8964 54.2195 35.8964ZM1.8125 37.9209H27.0772V37.7691L5.53979 31.0491L6.79159 29.3664L27.0772 35.7255V33.5782L8.07152 27.6273L9.2952 25.9455L27.0772 31.5055V29.3946L10.5189 24.2346L11.7707 22.5518L27.0772 27.3136V25.1755L13.0225 20.8409L14.2743 19.1591L27.0772 23.1227V20.9836L15.5542 17.42L16.806 15.7373L27.0772 18.9018V16.7927L18.0869 13.9982L19.3387 12.3155L27.0772 14.7109V12.6009L20.6186 10.6055L21.8704 8.92274L27.0772 10.5191V8.06728L23.3217 6.92637L26.8849 2.0791H1.8125V37.9209ZM57.9187 23.6073C57.6348 23.6073 57.4352 23.55 57.2928 23.4073C57.1504 23.2936 57.0651 23.1227 56.9798 22.9227C56.9098 22.7011 56.8716 22.4706 56.8665 22.2382V21.5255C56.8665 20.3282 56.8946 19.2155 56.9227 18.1327C56.9508 17.0773 56.9798 15.9936 56.9798 14.9109C56.9798 14.2836 56.8665 13.7136 56.6388 13.2C56.4111 12.6864 56.0981 12.2309 55.6999 11.86C55.3017 11.4891 54.8182 11.2036 54.2486 11.0046C53.6798 10.8046 53.0539 10.72 52.3708 10.72C51.6025 10.72 50.8623 10.8336 50.1512 11.0618C49.4119 11.29 48.6436 11.7182 47.7047 12.4591V13.9418H48.0177C48.3306 13.3427 48.8141 12.8582 49.469 12.5164C50.1178 12.1737 50.8411 11.9976 51.5744 12.0036C52.1432 12.0036 52.6276 12.0891 53.0258 12.2882C53.424 12.4882 53.7369 12.7446 53.9927 13.0582C54.2486 13.3718 54.4191 13.7709 54.5334 14.1982C54.6468 14.6264 54.7039 15.0818 54.7039 15.5673C54.7039 15.8518 54.6749 16.08 54.6186 16.2509C54.5624 16.4218 54.4191 16.5646 54.1352 16.7073C53.7202 16.8694 53.2916 16.9935 52.8543 17.0782C52.2856 17.1918 51.4891 17.3346 50.465 17.5055C49.2132 17.7055 48.2453 18.1327 47.5351 18.76C46.8239 19.3873 46.4819 20.2709 46.4819 21.4118C46.4819 21.9536 46.5672 22.4382 46.7949 22.8664C47.0226 23.2936 47.3065 23.6364 47.6485 23.95C47.9895 24.2636 48.3887 24.4627 48.8431 24.6055C49.2985 24.7482 49.7538 24.8055 50.2373 24.8055C51.2043 24.8055 52.0298 24.6346 52.6838 24.3209C53.3668 24.0073 54.0209 23.4936 54.7039 22.8091C54.7602 23.2936 54.9597 23.6927 55.2727 24.0064C55.6137 24.32 56.0691 24.4627 56.695 24.4627C57.0651 24.4627 57.4062 24.4346 57.7191 24.3773C57.9829 24.3304 58.2406 24.2542 58.4874 24.15V23.5227C58.4022 23.5509 58.3169 23.6082 58.2035 23.6082L57.9187 23.6073ZM54.7039 21.6682C54.391 22.21 53.9356 22.6664 53.3387 23.0655C52.7593 23.4589 52.0747 23.6674 51.3748 23.6636C50.7489 23.6636 50.1802 23.4364 49.6677 22.9791C49.1561 22.5236 48.8994 21.8391 48.8994 20.9546C48.8994 20.4127 48.9846 19.9855 49.1833 19.6427C49.3819 19.3 49.6386 19.0155 49.9797 18.7873C50.3327 18.556 50.7154 18.3738 51.1172 18.2455C51.5436 18.1318 51.9708 18.0173 52.3981 17.9318C52.8244 17.8464 53.2516 17.7891 53.678 17.7036C54.0698 17.6507 54.4527 17.5452 54.8164 17.39L54.7039 21.6682ZM39.7948 33.0164H42.5542C42.5542 34.7564 41.0747 35.9255 39.3104 35.9255C37.2902 35.9255 35.7255 34.3573 35.7255 32.3046C35.7255 30.28 37.2331 28.6546 39.3675 28.6546C41.53 28.6546 42.497 30.3936 42.497 30.3936L43.0377 30.0227C42.6558 29.3913 42.1167 28.87 41.4733 28.5102C40.8299 28.1503 40.1043 27.9642 39.3675 27.97C36.9773 27.97 34.9862 29.8518 34.9862 32.2473C34.9862 34.7 36.9211 36.5527 39.3104 36.5818C41.3876 36.5818 43.2653 35.1273 43.2653 32.9318V32.39H39.7938L39.7948 33.0164ZM45.0587 14.1973C45.0587 13.9127 45.0868 13.6273 45.1721 13.3418C43.9774 13.4555 42.7818 13.5418 41.5591 13.57C40.3363 13.5982 39.1126 13.6264 37.8599 13.6264V8.23819C37.8599 7.6391 37.8599 6.98365 37.888 6.32728C38.3434 6.32728 38.9121 6.32728 39.5952 6.35547C40.2773 6.35547 41.0175 6.38456 41.7577 6.41274C42.497 6.44092 43.2372 6.47001 43.9484 6.52637C44.6596 6.55456 45.2855 6.61183 45.798 6.6691C45.7417 6.38456 45.7127 6.0991 45.7127 5.81365C45.7127 5.52819 45.7417 5.24365 45.798 4.95819C44.7739 4.98637 43.835 5.01456 42.9533 5.04365C42.0707 5.07365 41.2171 5.07365 40.3644 5.07365C39.5117 5.07365 38.6854 5.07365 37.8318 5.04547C37.0063 5.01637 36.1527 4.98819 35.2991 4.96001C35.3563 6.21456 35.3844 7.44092 35.4416 8.63819C35.4987 9.86456 35.5268 11.09 35.4697 12.3455V17.2782C35.4697 18.5327 35.4697 19.7591 35.4134 20.9846C35.3816 22.1827 35.3341 23.3804 35.271 24.5773C35.735 24.5425 36.2 24.5234 36.6652 24.52C37.1496 24.52 37.6322 24.5482 38.0595 24.5773C38.0032 23.4082 37.9742 22.2109 37.917 20.9846C37.8833 19.7494 37.8642 18.5138 37.8599 17.2782V14.8546H39.7666C40.4216 14.8546 41.0756 14.8546 41.7296 14.8827C42.3555 14.8827 42.9814 14.9109 43.5792 14.9391C44.1113 14.9593 44.6425 14.9972 45.1721 15.0527C45.0925 14.7747 45.0543 14.4865 45.0587 14.1973ZM48.8141 30.3073C48.8141 29.11 47.9324 28.14 46.5953 28.14H44.7176V36.4091H45.4288V32.16L49.1842 36.4091H50.0949C50.0949 36.4091 47.0507 32.9873 46.5953 32.5027C47.9324 32.5027 48.8141 31.5627 48.8141 30.3073ZM45.4288 31.9046V28.7682H46.51C47.3636 28.7682 48.1029 29.1955 48.1029 30.3073C48.1029 31.1346 47.6194 31.9046 46.5382 31.9046H45.4288ZM140.086 10.69C138.692 10.69 137.44 11.7164 136.331 13.77L136.274 13.7418V12.6009C136.274 12.2018 136.302 11.66 136.388 10.9755L135.79 11.0609C135.59 11.0891 135.42 11.0891 135.249 11.0891C135.051 11.0891 134.851 11.0891 134.652 11.0609C134.453 11.0329 134.254 11.0044 134.055 10.9755C134.084 12.23 134.14 13.3418 134.14 14.3109C134.163 15.1662 134.173 16.0217 134.169 16.8773V17.79C134.169 19.3864 134.14 20.7555 134.14 21.8673C134.14 22.9791 134.112 23.8346 134.055 24.49C134.425 24.4618 134.823 24.4336 135.249 24.4336C135.619 24.4336 136.018 24.4618 136.388 24.49C136.36 24.0909 136.302 23.5491 136.302 22.8646V16.82C136.302 16.2782 136.36 15.7646 136.502 15.28C136.644 14.7955 136.815 14.3682 137.071 14.0255C137.327 13.6836 137.611 13.3982 137.981 13.1982C138.35 12.9982 138.749 12.8846 139.204 12.8846C139.489 12.8846 139.745 12.9418 140.03 13.0273C140.286 13.1127 140.485 13.2264 140.57 13.2836L140.769 13.1409C140.769 12.77 140.769 12.3427 140.797 11.8864C140.825 11.43 140.882 11.0882 140.968 10.86C140.797 10.7746 140.627 10.7464 140.513 10.7173C140.399 10.69 140.257 10.69 140.086 10.69ZM64.8608 33.9573C64.8608 35.1546 63.9219 35.8682 62.6982 35.8682C61.304 35.8682 60.4223 35.1555 60.4223 33.9291V28.0836H59.7111V33.9291C59.7111 35.5546 60.9348 36.5527 62.613 36.5527C64.3482 36.5527 65.5719 35.5264 65.5719 33.9582V28.1127H64.8608V33.9573ZM114.138 11.0036C113.825 11.8873 113.483 12.8573 113.114 13.8836C112.744 14.91 112.403 15.9082 112.033 16.8773C111.706 17.814 111.364 18.7456 111.009 19.6718C110.747 20.422 110.462 21.1638 110.155 21.8964C109.472 20.0146 108.817 18.1609 108.192 16.3927C107.569 14.6196 107.019 12.8218 106.542 11.0036C106.409 11.0287 106.276 11.0572 106.144 11.0891C106.03 11.1182 105.887 11.1182 105.746 11.1182C105.518 11.1182 105.234 11.0609 104.892 10.9755C104.636 11.8591 104.323 12.8291 103.981 13.8836C103.64 14.9382 103.299 15.9655 102.957 16.9627C102.615 17.96 102.274 18.9018 101.961 19.7855C101.708 20.4971 101.433 21.2008 101.136 21.8955C100.423 20.0696 99.7587 18.225 99.1439 16.3636C98.5518 14.593 98.011 12.8056 97.5219 11.0036C97.2661 11.0318 97.0385 11.06 96.8389 11.0891C96.6402 11.1182 96.4126 11.1182 96.213 11.1182C95.9853 11.1182 95.7867 11.1182 95.559 11.0891C95.3594 11.0609 95.1317 11.0327 94.905 11.0036C95.3594 12.1436 95.8438 13.3418 96.3273 14.6246C96.8117 15.9073 97.2661 17.1627 97.7215 18.3882C98.1479 19.6146 98.5751 20.7546 98.9452 21.8382C99.3153 22.9218 99.6273 23.8064 99.7988 24.49C100.026 24.4618 100.282 24.4336 100.595 24.4336C100.908 24.4336 101.164 24.4618 101.392 24.49C101.648 23.6918 101.96 22.8073 102.302 21.81C102.644 20.8127 102.985 19.8427 103.327 18.8736C103.668 17.9046 104.01 17.02 104.323 16.1655C104.635 15.3382 104.92 14.6255 105.148 14.0555C105.916 15.9373 106.57 17.7336 107.168 19.4446C107.766 21.1555 108.306 22.8664 108.79 24.5482C108.875 24.52 109.388 24.4918 109.529 24.4918C109.814 24.4918 110.07 24.52 110.269 24.5482C111.066 22.2955 111.948 20.0718 112.887 17.8191C113.843 15.526 114.849 13.254 115.903 11.0046C115.59 11.09 115.306 11.1473 115.049 11.1473C114.821 11.1464 114.507 11.0891 114.138 11.0036ZM128.108 12.3155C127.462 11.7551 126.706 11.3373 125.888 11.0891C125.086 10.8411 124.252 10.7163 123.412 10.7191C122.616 10.7191 121.791 10.8327 120.965 11.0891C120.148 11.3373 119.392 11.7552 118.746 12.3155C118.057 12.9175 117.512 13.6681 117.153 14.5109C116.755 15.4227 116.556 16.5064 116.556 17.79C116.556 19.0727 116.754 20.1573 117.153 21.0691C117.513 21.9118 118.057 22.6623 118.746 23.2646C119.395 23.8079 120.151 24.2064 120.965 24.4336C121.791 24.6618 122.587 24.7755 123.412 24.7755C124.237 24.7755 125.063 24.6618 125.888 24.4336C126.713 24.2055 127.453 23.8346 128.108 23.2646C128.797 22.6623 129.341 21.9118 129.701 21.0691C130.099 20.1855 130.298 19.0727 130.298 17.79C130.298 16.5064 130.1 15.4227 129.701 14.5109C129.342 13.6679 128.797 12.9173 128.108 12.3155ZM127.624 20.1C127.482 20.8409 127.254 21.4973 126.913 22.0673C126.579 22.6306 126.109 23.1012 125.547 23.4364C124.978 23.7782 124.267 23.9491 123.442 23.9491C122.616 23.9491 121.905 23.7782 121.336 23.4364C120.767 23.0946 120.312 22.6382 119.971 22.0673C119.63 21.4973 119.402 20.8409 119.26 20.1C119.117 19.3591 119.06 18.5891 119.06 17.79C119.06 16.9909 119.117 16.2218 119.26 15.48C119.402 14.7382 119.63 14.0827 119.971 13.5118C120.312 12.9418 120.767 12.4855 121.336 12.1436C121.905 11.8018 122.617 11.6309 123.442 11.6309C124.266 11.6309 124.978 11.8018 125.547 12.1436C126.109 12.4787 126.578 12.949 126.913 13.5118C127.254 14.0818 127.482 14.7382 127.624 15.48C127.795 16.2209 127.852 16.9909 127.852 17.79C127.852 18.5891 127.767 19.3582 127.624 20.1ZM164.127 18.1891C164.155 17.3336 164.184 16.5064 164.184 15.68C164.184 14.7109 164.042 13.8836 163.757 13.2564C163.473 12.6291 163.103 12.1164 162.676 11.7455C162.245 11.3847 161.74 11.122 161.197 10.9755C160.668 10.8297 160.123 10.753 159.575 10.7473C158.551 10.7473 157.668 10.9464 156.929 11.4027C156.189 11.8309 155.564 12.4582 155.022 13.2846H154.965V11.1182C154.965 10.4909 154.994 9.80637 154.994 9.06547C154.994 8.32456 154.994 7.61092 155.022 6.87001C155.022 6.15728 155.05 5.44456 155.079 4.78819C155.108 4.13274 155.136 3.56183 155.165 3.07728C154.624 3.16274 154.198 3.22001 153.885 3.22001C153.572 3.22001 153.146 3.16365 152.604 3.07728C152.632 3.53365 152.661 4.10365 152.689 4.78819C152.689 5.44456 152.717 6.15728 152.746 6.89819C152.746 7.6391 152.774 8.38092 152.774 9.15092C152.774 9.89183 152.774 10.6055 152.859 11.2609V16.3646C152.859 17.0209 152.831 17.7046 152.831 18.4746C152.831 19.2446 152.831 19.9864 152.803 20.7273C152.803 21.4682 152.774 22.1818 152.746 22.8373C152.724 23.3888 152.695 23.9401 152.66 24.4909C153.087 24.4627 153.514 24.4346 153.94 24.4346C154.367 24.4346 154.794 24.4627 155.221 24.4909C155.186 23.9495 155.158 23.4076 155.136 22.8655C155.136 22.21 155.108 21.5255 155.079 20.8127C155.079 20.1 155.05 19.4155 155.05 18.7027C155.022 17.99 155.022 17.3918 155.022 16.8491C155.022 15.3664 155.306 14.2255 155.933 13.3991C156.53 12.5718 157.498 12.1727 158.835 12.1727C159.802 12.1727 160.57 12.5146 161.111 13.2555C161.651 13.9682 161.935 15.0518 161.935 16.4773V18.2164C161.935 19.3282 161.935 20.3836 161.879 21.4382C161.851 22.4936 161.794 23.4909 161.766 24.4891C162.136 24.4609 162.534 24.4327 162.932 24.4327C163.331 24.4327 163.758 24.4609 164.127 24.4891C164.127 24.2327 164.099 23.9473 164.099 23.6618C164.071 23.3773 164.071 23.0918 164.071 22.7782V20.9273C164.071 19.9573 164.099 19.0446 164.127 18.1891ZM148.593 23.9773C148.024 23.9773 147.597 23.8636 147.284 23.6064C146.971 23.3782 146.743 23.0364 146.602 22.6373C146.451 22.1956 146.365 21.7345 146.345 21.2682C146.317 20.7555 146.317 20.2418 146.317 19.7V17.5609C146.345 16.7627 146.345 16.0209 146.373 15.28C146.373 14.5673 146.402 13.94 146.43 13.3982C146.458 12.8564 146.458 12.5709 146.487 12.4855H148.734C148.99 12.4855 149.246 12.4855 149.503 12.5136C149.475 12.4573 149.475 12.3709 149.475 12.2291V11.6309C149.475 11.4882 149.475 11.3746 149.503 11.3173C148.849 11.3455 148.223 11.3736 147.653 11.3736H146.487L146.572 9.29183C146.601 8.60728 146.629 7.89456 146.685 7.18183V7.15456H146.543L144.182 8.15274C144.21 8.75183 144.238 9.35001 144.238 9.92092C144.266 10.4909 144.266 10.9764 144.294 11.3464C143.896 11.3464 143.27 11.3182 142.416 11.2609C142.444 11.3464 142.473 11.4609 142.473 11.5455V12.1446C142.444 12.23 142.444 12.3446 142.416 12.4582C142.616 12.4582 142.786 12.43 142.957 12.43H144.351C144.351 13.4846 144.351 14.4546 144.323 15.31C144.323 16.1655 144.294 16.9636 144.266 17.6764C144.266 18.3891 144.238 19.0446 144.21 19.6436C144.182 20.2427 144.182 20.7846 144.182 21.2973C144.182 22.4373 144.465 23.2927 145.035 23.8918C145.604 24.4909 146.486 24.7764 147.681 24.7764C148.022 24.7764 148.392 24.7473 148.791 24.6627C149.161 24.5773 149.531 24.52 149.844 24.4627V23.7791C149.631 23.8486 149.412 23.8964 149.19 23.9218C148.934 23.9491 148.735 23.9773 148.593 23.9773ZM91.8326 17.4764C91.3192 17.2092 90.7743 17.0079 90.2107 16.8773C89.6129 16.7346 89.0723 16.5927 88.5888 16.3927C88.1276 16.233 87.709 15.9696 87.3651 15.6227C87.0522 15.3091 86.8816 14.8246 86.8816 14.2255C86.8816 13.7982 86.9669 13.4555 87.1093 13.1427C87.2517 12.8291 87.4504 12.6009 87.678 12.4009C87.9048 12.2018 88.1615 12.0591 88.4464 11.9736C88.7303 11.8882 89.0151 11.8309 89.3 11.8309C89.954 11.8309 90.4946 12.0018 90.9219 12.3727C91.3482 12.7436 91.6611 13.1427 91.8036 13.5991H92.1446C92.1728 13.3709 92.258 13.0573 92.4004 12.63C92.5429 12.2027 92.6844 11.86 92.8277 11.5755C92.3665 11.4202 91.9109 11.2488 91.4616 11.0618C90.9781 10.8627 90.4093 10.7773 89.6982 10.7773C88.9299 10.7773 88.2758 10.8627 87.678 11.0909C87.1269 11.2751 86.6221 11.5769 86.1986 11.9755C85.7981 12.3474 85.487 12.8056 85.2887 13.3155C85.0786 13.8611 84.9724 14.4415 84.9758 15.0264C84.9758 15.8246 85.1182 16.4518 85.4593 16.9082C85.7722 17.3646 86.1986 17.7064 86.683 17.9918C87.1949 18.2688 87.7399 18.4796 88.3049 18.6191C88.9026 18.7618 89.4424 18.9327 89.9268 19.1318C90.4112 19.3309 90.8085 19.5882 91.1504 19.9018C91.4634 20.2155 91.6348 20.6436 91.6348 21.2418C91.6348 21.67 91.5496 22.04 91.4072 22.3546C91.2647 22.6682 91.0661 22.9527 90.8094 23.1527C90.5457 23.3643 90.2474 23.5282 89.9277 23.6373C89.5989 23.7538 89.2523 23.8116 88.9035 23.8082C88.5053 23.8082 88.1352 23.7509 87.7942 23.6082C87.4531 23.4946 87.1392 23.3227 86.8553 23.1236C86.5714 22.9246 86.3428 22.7246 86.1441 22.4964C85.9709 22.2987 85.8001 22.099 85.6316 21.8973H85.2906C85.2906 22.1818 85.2343 22.5246 85.12 22.9518C85.0066 23.38 84.8932 23.6927 84.7789 23.95C85.1772 24.1773 85.6616 24.3773 86.2584 24.5482C86.8562 24.7191 87.5674 24.8055 88.4491 24.8055C89.2455 24.8055 89.9567 24.6918 90.5835 24.4636C91.1776 24.2448 91.72 23.9049 92.1764 23.4655C92.6317 23.0373 92.9728 22.5818 93.2005 22.04C93.4221 21.5267 93.5381 20.9738 93.5416 20.4146C93.5416 19.6164 93.3992 18.9891 93.0581 18.5327C92.7424 18.0755 92.3161 17.7336 91.8326 17.4764ZM68.9291 28.1118H67.0514V36.3809H67.7626V32.5027H68.8157C70.3233 32.5027 71.1488 31.5336 71.1488 30.2791C71.1488 29.0818 70.2662 28.1118 68.9291 28.1118ZM68.872 31.8755H67.7626V28.7682H68.8439C69.6974 28.7682 70.4367 29.1955 70.4367 30.3073C70.4367 31.1346 69.9532 31.8755 68.872 31.8755ZM68.218 13.2855L68.4166 13.1427C68.4166 12.7718 68.4166 12.3446 68.4456 11.8882C68.4738 11.4318 68.5309 11.09 68.6162 10.8618C68.4456 10.7764 68.2751 10.7482 68.1608 10.7191C68.0474 10.69 67.905 10.69 67.7345 10.69C66.3402 10.69 65.0884 11.7164 63.9791 13.77L63.9219 13.7418V12.6009C63.9219 12.2018 63.95 11.66 64.0353 10.9755L63.4375 11.0609C63.2379 11.09 63.0674 11.0891 62.8969 11.0891C62.6973 11.0891 62.4987 11.0891 62.2991 11.0609C62.0998 11.0329 61.9005 11.0044 61.7013 10.9755C61.7576 12.23 61.7866 13.3418 61.7866 14.3109V21.8673C61.7866 22.9791 61.7585 23.8346 61.7013 24.49C62.0714 24.4618 62.4696 24.4336 62.896 24.4336C63.2661 24.4336 63.6643 24.4618 64.0335 24.49C63.9772 24.0909 63.9482 23.5491 63.9482 22.8646V16.82C63.9482 16.2782 64.0054 15.7646 64.1478 15.28C64.2902 14.7955 64.4607 14.3682 64.7165 14.0255C64.9723 13.6827 65.2572 13.3982 65.6264 13.1982C65.9955 12.9982 66.3947 12.8846 66.85 12.8846C67.1349 12.8846 67.3907 12.9418 67.6755 13.0273C67.9331 13.1136 68.1327 13.2282 68.218 13.2855ZM80.6226 11.7736C80.1909 11.4126 79.6861 11.1499 79.1431 11.0036C78.6145 10.8579 78.0694 10.7812 77.5212 10.7755C76.4971 10.7755 75.6145 10.9755 74.8752 11.4309C74.1359 11.8591 73.5091 12.4864 72.9685 13.3127H72.9113C72.9113 12.5427 72.9403 11.8009 72.9966 11.0318C72.7689 11.06 72.5412 11.0882 72.3707 11.1173C72.2001 11.1455 72.0296 11.1455 71.8872 11.1455C71.5742 11.1455 71.1479 11.0882 70.6073 11.0027C70.6925 11.8009 70.7497 12.6855 70.7778 13.6255C70.7778 14.5664 70.8059 15.4509 70.8059 16.3064V19.3C70.8059 20.1555 70.8059 21.04 70.7778 21.98C70.7553 22.828 70.6984 23.6748 70.6073 24.5182C71.0336 24.49 71.4608 24.4618 71.8872 24.4618C72.3144 24.4618 72.7408 24.49 73.168 24.5182C73.0759 23.6749 73.019 22.8281 72.9975 21.98C72.9975 21.0391 72.9694 20.1555 72.9694 19.3V16.8764C72.9694 15.3936 73.2533 14.2536 73.8801 13.4264C74.477 12.5991 75.4448 12.2 76.7819 12.2C77.7489 12.2 78.5181 12.5418 79.0578 13.2836C79.5985 14.0246 79.8543 15.08 79.8543 16.5055V18.2455C79.8543 19.3573 79.8543 20.4118 79.798 21.4673C79.769 22.5227 79.7128 23.52 79.6847 24.5182C80.0548 24.49 80.453 24.4618 80.8512 24.4618C81.2494 24.4618 81.6767 24.49 82.0458 24.5182C82.0458 24.2618 82.0177 23.9764 82.0177 23.6909V20.9536C82.0177 19.9846 82.0458 19.0718 82.074 18.2164C82.103 17.3609 82.1311 16.5346 82.1311 15.7073C82.1311 14.7382 81.9887 13.9109 81.7039 13.2836C81.419 12.6573 81.0498 12.1446 80.6226 11.7736Z" fill="black"/>
</svg>
