<svg width="146" height="40" viewBox="0 0 146 40" fill="none" xmlns="http://www.w3.org/2000/svg">
<g clip-path="url(#clip0_146_11)">
<path d="M54.2959 15.2319L57.8501 25.0479H55.6799L54.9608 22.8626H51.4066L50.6617 25.0479H48.5586L52.1528 15.2319H54.2959ZM54.416 21.2533L53.2179 17.6519H53.1908L51.9527 21.2533H54.416Z" fill="black"/>
<path d="M61.6154 15.2319L63.8386 21.9826H63.8657L65.9688 15.2319H68.911V25.0479H66.9538V18.0919H66.9267L64.5964 25.0479H62.9852L60.6562 18.1599H60.6291V25.0479H58.6719V15.2319H61.6141H61.6154Z" fill="black"/>
<path d="M75.2208 15.2319C75.6739 15.2319 76.0858 15.2733 76.4589 15.3559C76.832 15.4386 77.1509 15.5733 77.4168 15.7613C77.6828 15.9493 77.8894 16.1986 78.0352 16.5106C78.1811 16.8226 78.2547 17.2066 78.2547 17.6653C78.2547 18.1599 78.1463 18.5719 77.9281 18.9026C77.7099 19.2319 77.3884 19.5026 76.9624 19.7133C77.5485 19.8879 77.9849 20.1919 78.2741 20.6279C78.562 21.0626 78.7066 21.5879 78.7066 22.2026C78.7066 22.6973 78.6136 23.1266 78.4277 23.4879C78.2418 23.8506 77.99 24.1453 77.675 24.3746C77.36 24.6039 77.0011 24.7733 76.597 24.8839C76.1929 24.9933 75.7785 25.0493 75.3525 25.0493H70.7461V15.2333H75.2182L75.2208 15.2319ZM74.9548 19.2053C75.3279 19.2053 75.6339 19.1133 75.8728 18.9306C76.1129 18.7479 76.2317 18.4493 76.2317 18.0373C76.2317 17.8079 76.1916 17.6199 76.1116 17.4733C76.0316 17.3266 75.9257 17.2119 75.7927 17.1293C75.6597 17.0466 75.5061 16.9893 75.3331 16.9573C75.1601 16.9253 74.9807 16.9093 74.7935 16.9093H72.8363V19.2053H74.9523H74.9548ZM75.0749 23.3706C75.2789 23.3706 75.4738 23.3506 75.661 23.3093C75.8469 23.2679 76.0109 23.1986 76.1542 23.1026C76.2962 23.0066 76.4085 22.8759 76.4937 22.7106C76.5777 22.5453 76.6203 22.3346 76.6203 22.0786C76.6203 21.5746 76.4821 21.2146 76.2071 20.9999C75.9321 20.7853 75.5681 20.6773 75.1162 20.6773H72.8401V23.3719H75.0762L75.0749 23.3706Z" fill="black"/>
<path d="M87.2295 15.2319V17.0466H82.2113V19.1506H86.8177V20.8279H82.2113V23.2333H87.3366V25.0479H80.1211V15.2319H87.2295Z" fill="black"/>
<path d="M93.8715 15.2319C94.2975 15.2319 94.681 15.3026 95.0231 15.4453C95.3652 15.5879 95.657 15.7826 95.901 16.0293C96.145 16.2773 96.3309 16.5639 96.46 16.8893C96.5891 17.2146 96.6536 17.5653 96.6536 17.9413C96.6536 18.5186 96.5362 19.0186 96.3012 19.4399C96.0662 19.8613 95.6828 20.1826 95.1496 20.4026V20.4306C95.4065 20.5039 95.6195 20.6159 95.7887 20.7679C95.9565 20.9186 96.0946 21.0973 96.2018 21.3039C96.3089 21.5106 96.3864 21.7373 96.4342 21.9839C96.4832 22.2319 96.5168 22.4786 96.5336 22.7266C96.5426 22.8826 96.5516 23.0653 96.5607 23.2759C96.5697 23.4866 96.5852 23.7026 96.6072 23.9226C96.6291 24.1426 96.6653 24.3506 96.7143 24.5479C96.7634 24.7453 96.8357 24.9119 96.9338 25.0493H94.8436C94.7287 24.7373 94.6577 24.3666 94.6306 23.9359C94.6035 23.5053 94.5635 23.0933 94.5105 22.6986C94.4395 22.1853 94.2885 21.8093 94.0574 21.5706C93.8263 21.3319 93.4493 21.2133 92.9264 21.2133H90.8363V25.0493H88.7461V15.2333H93.8715V15.2319ZM93.1266 19.6719C93.6055 19.6719 93.9657 19.5613 94.2046 19.3413C94.4447 19.1213 94.5635 18.7639 94.5635 18.2693C94.5635 17.7746 94.4434 17.4466 94.2046 17.2319C93.9644 17.0173 93.6055 16.9093 93.1266 16.9093H90.8376V19.6719H93.1266Z" fill="black"/>
<path d="M106.529 15.2319C106.983 15.2319 107.394 15.2733 107.767 15.3559C108.141 15.4386 108.459 15.5733 108.725 15.7613C108.991 15.9493 109.198 16.1986 109.344 16.5106C109.49 16.8226 109.563 17.2066 109.563 17.6653C109.563 18.1599 109.455 18.5719 109.237 18.9026C109.018 19.2319 108.697 19.5026 108.271 19.7133C108.857 19.8879 109.293 20.1919 109.583 20.6279C109.871 21.0626 110.015 21.5879 110.015 22.2026C110.015 22.6973 109.922 23.1266 109.736 23.4879C109.55 23.8506 109.299 24.1453 108.984 24.3746C108.669 24.6039 108.31 24.7733 107.906 24.8839C107.502 24.9933 107.087 25.0493 106.661 25.0493H102.055V15.2333H106.527L106.529 15.2319ZM106.263 19.2053C106.637 19.2053 106.943 19.1133 107.181 18.9306C107.421 18.7479 107.54 18.4493 107.54 18.0373C107.54 17.8079 107.5 17.6199 107.42 17.4733C107.34 17.3266 107.234 17.2119 107.101 17.1293C106.968 17.0466 106.815 16.9893 106.642 16.9573C106.469 16.9253 106.289 16.9093 106.102 16.9093H104.145V19.2053H106.261H106.263ZM106.383 23.3706C106.587 23.3706 106.782 23.3506 106.97 23.3093C107.156 23.2679 107.319 23.1986 107.463 23.1026C107.605 23.0066 107.717 22.8759 107.802 22.7106C107.886 22.5453 107.929 22.3346 107.929 22.0786C107.929 21.5746 107.791 21.2146 107.516 20.9999C107.241 20.7853 106.877 20.6773 106.425 20.6773H104.149V23.3719H106.385L106.383 23.3706Z" fill="black"/>
<path d="M111.336 18.1399C111.549 17.5119 111.855 16.9639 112.254 16.4972C112.653 16.0292 113.143 15.6639 113.724 15.3972C114.305 15.1319 114.96 14.9985 115.688 14.9985C116.416 14.9985 117.081 15.1319 117.658 15.3972C118.235 15.6625 118.723 16.0292 119.122 16.4972C119.521 16.9652 119.828 17.5119 120.04 18.1399C120.253 18.7679 120.36 19.4479 120.36 20.1812C120.36 20.9145 120.253 21.5625 120.04 22.1812C119.827 22.7999 119.521 23.3385 119.122 23.7959C118.723 24.2545 118.235 24.6132 117.658 24.8745C117.081 25.1359 116.424 25.2665 115.688 25.2665C114.952 25.2665 114.305 25.1359 113.724 24.8745C113.143 24.6132 112.653 24.2532 112.254 23.7959C111.855 23.3372 111.548 22.7985 111.336 22.1812C111.124 21.5639 111.016 20.8959 111.016 20.1812C111.016 19.4665 111.123 18.7679 111.336 18.1399ZM113.247 21.3839C113.339 21.7732 113.488 22.1239 113.692 22.4359C113.896 22.7479 114.162 22.9972 114.491 23.1852C114.819 23.3732 115.219 23.4665 115.689 23.4665C116.159 23.4665 116.559 23.3732 116.887 23.1852C117.215 22.9972 117.482 22.7479 117.686 22.4359C117.89 22.1239 118.039 21.7732 118.132 21.3839C118.225 20.9945 118.271 20.5932 118.271 20.1812C118.271 19.7692 118.225 19.3332 118.132 18.9305C118.039 18.5279 117.89 18.1679 117.686 17.8519C117.482 17.5359 117.216 17.2839 116.887 17.0959C116.559 16.9079 116.159 16.8145 115.689 16.8145C115.219 16.8145 114.819 16.9092 114.491 17.0959C114.163 17.2839 113.896 17.5359 113.692 17.8519C113.488 18.1679 113.339 18.5279 113.247 18.9305C113.154 19.3345 113.107 19.7505 113.107 20.1812C113.107 20.6119 113.154 20.9945 113.247 21.3839Z" fill="black"/>
<path d="M121.691 18.1399C121.904 17.5119 122.21 16.9639 122.609 16.4972C123.008 16.0292 123.499 15.6639 124.08 15.3972C124.661 15.1319 125.315 14.9985 126.043 14.9985C126.771 14.9985 127.436 15.1319 128.013 15.3972C128.591 15.6625 129.079 16.0292 129.477 16.4972C129.876 16.9652 130.184 17.5119 130.395 18.1399C130.608 18.7679 130.716 19.4479 130.716 20.1812C130.716 20.9145 130.608 21.5625 130.395 22.1812C130.182 22.7999 129.876 23.3385 129.477 23.7959C129.079 24.2545 128.591 24.6132 128.013 24.8745C127.436 25.1359 126.779 25.2665 126.043 25.2665C125.307 25.2665 124.661 25.1359 124.08 24.8745C123.499 24.6132 123.008 24.2532 122.609 23.7959C122.21 23.3372 121.903 22.7985 121.691 22.1812C121.478 21.5625 121.371 20.8959 121.371 20.1812C121.371 19.4665 121.478 18.7679 121.691 18.1399ZM123.602 21.3839C123.695 21.7732 123.843 22.1239 124.047 22.4359C124.251 22.7479 124.517 22.9972 124.847 23.1852C125.174 23.3732 125.575 23.4665 126.045 23.4665C126.515 23.4665 126.915 23.3732 127.243 23.1852C127.571 22.9972 127.838 22.7479 128.042 22.4359C128.246 22.1239 128.394 21.7732 128.487 21.3839C128.58 20.9945 128.627 20.5932 128.627 20.1812C128.627 19.7692 128.58 19.3332 128.487 18.9305C128.394 18.5279 128.246 18.1679 128.042 17.8519C127.838 17.5359 127.572 17.2839 127.243 17.0959C126.915 16.9079 126.515 16.8145 126.045 16.8145C125.575 16.8145 125.174 16.9092 124.847 17.0959C124.519 17.2839 124.251 17.5359 124.047 17.8519C123.843 18.1679 123.695 18.5279 123.602 18.9305C123.509 19.3345 123.463 19.7505 123.463 20.1812C123.463 20.6119 123.509 20.9945 123.602 21.3839Z" fill="black"/>
<path d="M134.231 15.2318V19.3011L137.945 15.2318H140.554L136.84 19.1091L140.913 25.0478H138.291L135.429 20.6345L134.231 21.8851V25.0465H132.141V15.2305H134.231V15.2318Z" fill="black"/>
<path d="M38.7308 0H0V40H38.7308V0Z" fill="black"/>
<path d="M14.9148 12.1187L20.7967 28.3613H17.2064L16.0173 24.744H10.1354L8.90248 28.3613H5.42188L11.3696 12.1187H14.9161H14.9148ZM15.1136 22.0827L13.1306 16.1227H13.0867L11.0378 22.0827H15.1123H15.1136Z" fill="white"/>
<path d="M24.959 12.1187V18.0333H25.0029C25.385 17.4267 25.9027 16.984 26.556 16.7027C27.2092 16.4227 27.8883 16.2813 28.5932 16.2813C29.1664 16.2813 29.7306 16.4027 30.2896 16.6453C30.8473 16.888 31.3508 17.26 31.7988 17.76C32.2468 18.26 32.6096 18.9013 32.8897 19.6827C33.1686 20.464 33.308 21.3933 33.308 22.4693C33.308 23.5453 33.1686 24.4747 32.8897 25.256C32.6109 26.0373 32.2468 26.6773 31.7988 27.1787C31.3508 27.6787 30.8473 28.0507 30.2896 28.2933C29.7319 28.536 29.1664 28.6573 28.5932 28.6573C27.7566 28.6573 27.0078 28.5213 26.3468 28.248C25.6858 27.9747 25.1862 27.512 24.8492 26.86H24.8053V28.3613H21.8321V12.1187H24.9603H24.959ZM30.025 21.0587C29.9217 20.604 29.7603 20.2013 29.5408 19.8533C29.3201 19.5053 29.0451 19.228 28.7146 19.0227C28.3841 18.8173 27.9838 18.716 27.5139 18.716C27.044 18.716 26.6618 18.8187 26.3249 19.0227C25.9866 19.228 25.7078 19.504 25.4883 19.8533C25.2675 20.2027 25.1061 20.604 25.0041 21.0587C24.9009 21.5133 24.8505 21.9907 24.8505 22.492C24.8505 22.9933 24.9022 23.448 25.0041 23.9027C25.1074 24.3573 25.2688 24.76 25.4883 25.108C25.709 25.4573 25.9879 25.7333 26.3249 25.9387C26.6618 26.144 27.0595 26.2453 27.5139 26.2453C27.9683 26.2453 28.3841 26.1427 28.7146 25.9387C29.0451 25.7333 29.3201 25.4573 29.5408 25.108C29.7616 24.7587 29.923 24.3573 30.025 23.9027C30.1269 23.448 30.1786 22.9773 30.1786 22.492C30.1786 22.0067 30.1269 21.5133 30.025 21.0587Z" fill="white"/>
<path d="M141.785 15.2065H143.241V15.5319H142.702V17.0399H142.327V15.5319H141.785V15.2065ZM145.552 15.2065V17.0385H145.226V15.9092L145.25 15.6799L144.702 16.7172C144.677 16.7745 144.634 16.8039 144.572 16.8039H144.518C144.456 16.8039 144.412 16.7745 144.387 16.7172L143.835 15.6799L143.862 15.9092V17.0385H143.529V15.2065H143.847C143.88 15.2065 143.905 15.2105 143.921 15.2185C143.936 15.2265 143.954 15.2439 143.976 15.2705L144.482 16.2079C144.508 16.2639 144.529 16.3172 144.541 16.3692C144.557 16.3119 144.579 16.2572 144.605 16.2079L145.111 15.2705C145.13 15.2439 145.148 15.2265 145.164 15.2185C145.179 15.2105 145.204 15.2065 145.237 15.2065H145.552Z" fill="black"/>
</g>
<defs>
<clipPath id="clip0_146_11">
<rect width="145.556" height="40" fill="white"/>
</clipPath>
</defs>
</svg>
