<svg width="1440" height="62" viewBox="0 0 1440 62" fill="none" xmlns="http://www.w3.org/2000/svg">
<path d="M-3 2C-2.04144 3.19082 8.06116 3.56136 9.77778 3.72541C34.1885 6.05812 58.8186 7.50557 83.6667 8.7866C141.073 11.7461 198.126 15.2845 255.889 16.8845C320.413 18.6717 385.79 19.2778 450.444 18.886C514.375 18.4986 577.907 15.3985 641.778 14.4229C686.233 13.7439 730.568 13.3792 775.056 13.8018C821.672 14.2445 868.39 13.4044 915 12.9736C1004.1 12.15 1093.43 12.6143 1182.56 12.7665C1234.83 12.8558 1286.93 15.2511 1339.22 15.2511C1370.78 15.2511 1402.82 16.1815 1434.22 17.4136C1451.2 18.0797 1467.96 18.1498 1485 18.1498" stroke="#5CD93D" stroke-width="3" stroke-linecap="round"/>
<path d="M1489 41C1475.88 41.3541 1462.09 42.7734 1449.11 43.6869C1412.96 46.232 1376.71 47.9028 1340.33 49.6604C1299.43 51.6366 1258.18 53.4767 1217 53.5227C1174.87 53.5699 1132.74 53.3964 1090.61 53.5467C1041.03 53.7237 991.581 55.3791 942 54.2904C912.084 53.6335 882.208 52.1822 852.222 52.3232C830.395 52.4259 808.616 53.1204 786.778 53.0909C768.341 53.066 749.978 52.3088 731.556 52.0833C708.435 51.8004 685.336 52.4339 662.222 51.9394C636.395 51.3868 610.781 49.8476 585 49.0606C556.251 48.183 527.737 49.2735 499 49.5404C480.299 49.7141 461.614 49.5158 442.944 50.1162C423.658 50.7363 404.531 51.9259 385.333 52.899C365.911 53.8834 346.411 54.4884 326.944 55.274C306.42 56.1023 286.085 57.2893 265.444 57.3851C245.868 57.476 226.333 57.4425 206.778 57.9369C189.86 58.3646 173.071 59.1062 156.111 59.1364C133.754 59.1761 111.505 60 89.1667 60C45.7391 60 2.40498 59.5682 -41 59.5682" stroke="#5CD93D" stroke-width="3" stroke-linecap="round"/>
</svg>
