<svg width="1440" height="20" viewBox="0 0 1440 20" fill="none" xmlns="http://www.w3.org/2000/svg">
<path d="M-15 11.6268C-14.5324 9.2309 -3.54508 9.61384 -1.54063 9.54339C27.6552 8.51714 57.1569 8.44453 86.3939 8.39392C145.922 8.29087 205.306 11.6009 264.843 10.6569C304.626 10.0262 344.573 9.97447 384.351 10.7288C450.034 11.9743 515.487 15.6012 581.138 17.1586C662.4 19.0864 743.157 17.4401 824.304 14.8597C893.345 12.6643 961.801 6.80872 1030.96 5.80761C1095.89 4.8678 1160.71 4.99605 1225.62 5.16104C1271.41 5.27744 1316.86 2 1362.62 2C1386.75 2 1411.2 5.13494 1435.25 6.41827C1450.12 7.21213 1465.07 8.39392 1480 8.39392" stroke="#00AFB5" stroke-width="3" stroke-linecap="round"/>
</svg>
