<svg width="24" height="24" viewBox="0 0 24 24" fill="none" xmlns="http://www.w3.org/2000/svg">
<path id="Union" fill-rule="evenodd" clip-rule="evenodd" d="M1.71285 10.2348C1.71285 5.65688 5.424 1.94573 10.0019 1.94573C14.5799 1.94573 18.291 5.65688 18.291 10.2348C18.291 14.8128 14.5799 18.5239 10.0019 18.5239C5.424 18.5239 1.71285 14.8128 1.71285 10.2348ZM10.0019 0.523926C4.63876 0.523926 0.291046 4.87164 0.291046 10.2348C0.291046 15.598 4.63876 19.9457 10.0019 19.9457C12.4422 19.9457 14.6722 19.0456 16.3781 17.5594L22.0019 23.1831C22.3924 23.5737 23.0256 23.5737 23.4161 23.1831C23.8066 22.7926 23.8066 22.1595 23.4161 21.7689L17.7443 16.0972C18.9798 14.4681 19.7128 12.4371 19.7128 10.2348C19.7128 4.87164 15.3651 0.523926 10.0019 0.523926Z" fill="black"/>
</svg>
