<svg width="196" height="115" viewBox="0 0 196 115" fill="none" xmlns="http://www.w3.org/2000/svg">
<path d="M170.205 12.2982C130.935 1.41818 90.3946 -0.861823 50.6046 5.55818C41.8446 6.96818 32.9646 8.86818 25.0146 14.0782C17.0646 19.2882 10.0546 28.3082 7.68455 39.8982C4.68455 54.5482 9.74455 70.5982 17.8946 80.9782C26.0446 91.3482 36.8146 96.9782 47.5246 101.208C79.4446 113.808 113.545 115.988 146.185 107.508C160.635 103.758 175.275 97.5982 186.325 84.3682C190.105 79.8482 193.565 73.9782 193.735 67.1182C194.025 54.9782 184.885 42.6382 177.425 36.4482C157.975 20.3082 152.275 17.7082 125.255 10.3482C104.515 4.69818 73.4246 4.38818 52.3546 2.88818C42.8146 2.20818 33.0745 2.31818 23.9646 6.23818C14.8546 10.1582 3.88455 17.5982 2.42455 30.2382C1.90455 34.7582 1.49455 46.2382 3.52455 51.0682C17.4246 84.0882 47.6446 104.348 76.7446 99.3882" stroke="#FF4242" stroke-width="3" stroke-linecap="round" stroke-linejoin="round"/>
</svg>
